HIERARCHY
ROOT Hips
{
	OFFSET 0.000000 0.000000 0.000000
	CHANNELS 6 Xposition Yposition Zposition Zrotation Yrotation Xrotation 
	JOINT LHipJoint
	{
		OFFSET 0.000000 0.000000 0.000000
		CHANNELS 3 Zrotation Yrotation Xrotation
		JOINT LeftUpLeg
		{
			OFFSET 8.178360 -10.767780 5.035740
			CHANNELS 3 Zrotation Yrotation Xrotation
			JOINT LeftLeg
			{
				OFFSET 14.688660 -40.356780 0.000000
				CHANNELS 3 Zrotation Yrotation Xrotation
				JOINT LeftFoot
				{
					OFFSET 15.373200 -42.237540 0.000000
					CHANNELS 3 Zrotation Yrotation Xrotation
					JOINT LeftToeBase
					{
						OFFSET 0.945840 -2.598660 13.935300
						CHANNELS 3 Zrotation Yrotation Xrotation
						End Site
						{
							OFFSET 0.000000 0.000000 0.000000
						}
					}
				}
			}
		}
	}
	JOINT RHipJoint
	{
		OFFSET 0.000000 0.000000 0.000000
		CHANNELS 3 Zrotation Yrotation Xrotation
		JOINT RightUpLeg
		{
			OFFSET -7.833120 -10.767780 5.035740
			CHANNELS 3 Zrotation Yrotation Xrotation
			JOINT RightLeg
			{
				OFFSET -15.255180 -41.913300 0.000000
				CHANNELS 3 Zrotation Yrotation Xrotation
				JOINT RightFoot
				{
					OFFSET -15.409560 -42.337380 0.000000
					CHANNELS 3 Zrotation Yrotation Xrotation
					JOINT RightToeBase
					{
						OFFSET -0.988380 -2.715540 14.178900
						CHANNELS 3 Zrotation Yrotation Xrotation
						End Site
						{
							OFFSET 0.000000 0.000000 0.000000
						}
					}
				}
			}
		}
	}
	JOINT LowerBack
	{
		OFFSET 0.000000 0.000000 0.000000
		CHANNELS 3 Zrotation Yrotation Xrotation
		JOINT Spine
		{
			OFFSET 0.169620 12.213540 -1.160280
			CHANNELS 3 Zrotation Yrotation Xrotation
			JOINT Spine1
			{
				OFFSET 0.340320 12.293100 -0.256500
				CHANNELS 3 Zrotation Yrotation Xrotation
				JOINT Neck
				{
					OFFSET 0.000000 0.000000 0.000000
					CHANNELS 3 Zrotation Yrotation Xrotation
					JOINT Neck1
					{
						OFFSET -0.325020 10.477440 1.032120
						CHANNELS 3 Zrotation Yrotation Xrotation
						JOINT Head
						{
							OFFSET 0.624420 10.568160 -0.743820
							CHANNELS 3 Zrotation Yrotation Xrotation
							End Site
							{
								OFFSET 0.000000 0.000000 0.000000
							}
						}
					}
				}
				JOINT LeftShoulder
				{
					OFFSET 0.000000 0.000000 0.000000
					CHANNELS 3 Zrotation Yrotation Xrotation
					JOINT LeftArm
					{
						OFFSET 20.174460 7.205340 -1.867260
						CHANNELS 3 Zrotation Yrotation Xrotation
						JOINT LeftForeArm
						{
							OFFSET 29.898000 -0.000000 -0.000000
							CHANNELS 3 Zrotation Yrotation Xrotation
							JOINT LeftHand
							{
								OFFSET 20.901360 -0.000000 -0.000000
								CHANNELS 3 Zrotation Yrotation Xrotation
								JOINT LeftFingerBase
								{
									OFFSET 0.000000 0.000000 0.000000
									CHANNELS 3 Zrotation Yrotation Xrotation
									JOINT LeftHandIndex1
									{
										OFFSET 4.291560 -0.000000 -0.000000
										CHANNELS 3 Zrotation Yrotation Xrotation
										End Site
										{
											OFFSET 0.000000 0.000000 0.000000
										}
									}
								}
								JOINT LThumb
								{
									OFFSET 0.000000 0.000000 0.000000
									CHANNELS 3 Zrotation Yrotation Xrotation
									End Site
									{
										OFFSET 0.000000 0.000000 0.000000
									}
								}
							}
						}
					}
				}
				JOINT RightShoulder
				{
					OFFSET 0.000000 0.000000 0.000000
					CHANNELS 3 Zrotation Yrotation Xrotation
					JOINT RightArm
					{
						OFFSET -18.819600 8.244300 -2.427900
						CHANNELS 3 Zrotation Yrotation Xrotation
						JOINT RightForeArm
						{
							OFFSET -31.451400 -0.000000 -0.000000
							CHANNELS 3 Zrotation Yrotation Xrotation
							JOINT RightHand
							{
								OFFSET -20.665020 -0.000000 -0.000000
								CHANNELS 3 Zrotation Yrotation Xrotation
								JOINT RightFingerBase
								{
									OFFSET 0.000000 0.000000 0.000000
									CHANNELS 3 Zrotation Yrotation Xrotation
									JOINT RightHandIndex1
									{
										OFFSET -3.735180 -0.000000 -0.000000
										CHANNELS 3 Zrotation Yrotation Xrotation
										End Site
										{
											OFFSET 0.000000 0.000000 0.000000
										}
									}
								}
								JOINT RThumb
								{
									OFFSET 0.000000 0.000000 0.000000
									CHANNELS 3 Zrotation Yrotation Xrotation
									End Site
									{
										OFFSET 0.000000 0.000000 0.000000
									}
								}
							}
						}
					}
				}
			}
		}
	}
}
MOTION
Frames:	5
Frame Time:	0.0333333
34.903350 103.143294 49.305570 -177.427204 -0.963050 -176.250821 -2.636572 -3.055827 -0.965838 -10.540405 33.051396 -41.659483 11.059674 17.176821 55.182913 1.510601 2.318587 5.637075 0.022800 0.975300 2.680900 3.041205 3.648570 -0.984863 16.969236 -33.317511 -44.077557 -11.352418 -17.722094 58.044731 -2.739666 -0.384864 5.079568 -0.555600 -4.774700 13.267200 1.136868 2.813544 6.981887 0.463753 3.737322 -4.816821 1.279971 1.653833 -5.060327 -1.523048 1.520268 -20.811060 8.274757 1.661624 10.273016 1.994600 1.194500 11.189400 -4.388119 -5.641231 1.840372 9.457298 -0.057565 35.244070 6.101121 -11.590179 -4.763037 -0.569506 -1.585822 -14.723812 1.897321 -1.776802 -0.019300 -7.125000 0.000000 0.000000 -18.360900 29.322500 7.364200 8.951895 6.672315 2.025428 -11.763352 -3.971097 35.026993 -6.829310 13.911046 -6.598358 1.114172 -1.991803 -8.218789 -4.217197 12.637681 -1.285800 7.125000 0.000000 0.000000 15.189000 -15.498300 10.976100 
34.840896 103.276686 49.291686 -177.363425 -0.935350 -176.249213 -2.682968 -3.076156 -0.955314 -10.453382 32.901422 -41.518727 10.985954 17.141057 54.968505 1.337544 2.652290 5.805800 0.024000 1.000500 2.750100 3.112164 3.674566 -0.957965 16.930578 -33.222173 -43.939422 -11.245633 -17.676253 57.758126 -2.692330 -0.492164 5.317342 -0.563300 -4.807300 13.359700 1.147210 2.787522 6.986913 0.457179 3.706137 -4.828881 1.306912 1.630324 -5.134717 -1.520210 1.528271 -20.726617 8.556632 1.655075 10.240915 2.194600 1.215300 11.139300 -4.363894 -5.636334 1.845286 9.514551 -0.075978 35.270459 6.138337 -11.605425 -4.795364 -0.481561 -1.472506 -14.686408 1.740747 -1.928573 -0.028200 -7.125000 0.000000 0.000000 -18.522400 29.089200 7.544600 8.904405 6.686861 2.048258 -11.746554 -3.985786 35.091773 -6.885979 13.952926 -6.635127 1.256625 -1.997290 -9.169096 -4.336543 12.769683 -1.358200 7.125000 0.000000 0.000000 15.031700 -15.321700 10.913200 
34.809282 103.430124 49.271640 -177.322480 -0.889043 -176.225368 -2.729822 -3.085578 -0.940917 -10.392583 32.809414 -41.411112 10.900656 17.098917 54.712643 1.254358 2.827939 6.038831 0.031300 1.142300 3.140300 3.184645 3.699871 -0.931248 16.913408 -33.142781 -43.816215 -11.126102 -17.624192 57.433247 -2.645825 -0.604310 5.552188 -0.574800 -4.855200 13.496000 1.072588 2.770766 6.980673 0.453078 3.680969 -4.841282 1.371091 1.609398 -5.199303 -1.496677 1.518747 -20.720365 8.870904 1.615345 10.250086 2.401100 1.227200 11.139800 -4.345675 -5.628249 1.853046 9.575819 -0.114688 35.084933 6.166901 -11.609076 -4.817125 -0.464374 -1.464447 -14.859367 1.713531 -1.944837 -0.028700 -7.125000 0.000000 0.000000 -18.549900 29.067100 7.567400 8.852397 6.709729 2.067083 -11.747374 -4.008185 35.173542 -6.926663 13.971230 -6.653963 1.410154 -2.089238 -9.348758 -4.631170 13.004422 -1.501900 7.125000 0.000000 0.000000 14.732800 -14.960900 10.798800 
34.788462 103.582788 49.267014 -177.275480 -0.873309 -176.174502 -2.769466 -3.094785 -0.930765 -10.367080 32.744125 -41.343604 10.807161 17.050221 54.428669 1.157022 3.033665 6.257181 0.033200 1.175500 3.231700 3.254315 3.724344 -0.910060 16.941077 -33.118083 -43.760024 -11.010782 -17.571184 57.113172 -2.621508 -0.676397 5.805998 -0.581300 -4.882200 13.573000 1.013313 2.742121 6.985168 0.441396 3.647158 -4.852081 1.389904 1.583440 -5.239559 -1.391837 1.496711 -20.819098 9.188633 1.531909 10.271905 2.597900 1.228500 11.175000 -4.330241 -5.618475 1.863012 9.657433 -0.175951 34.740252 6.176044 -11.582595 -4.806144 -0.498232 -1.517661 -15.037985 1.777749 -1.870982 -0.024800 -7.125000 0.000000 0.000000 -18.484000 29.178100 7.486000 8.795397 6.741715 2.072962 -11.755919 -4.029453 35.278192 -6.955991 13.989478 -6.692148 1.388885 -2.135093 -9.451709 -4.563306 13.121932 -1.490500 7.125000 0.000000 0.000000 14.790800 -14.809200 10.894200 
34.781526 103.735452 49.271640 -177.234420 -0.849500 -176.116667 -2.799393 -3.098463 -0.921165 -10.369471 32.719913 -41.297953 10.712503 16.998604 54.138212 1.084644 3.196330 6.482851 0.033600 1.182700 3.251700 3.327440 3.747399 -0.895022 16.970560 -33.105220 -43.720130 -10.898819 -17.522471 56.799587 -2.603634 -0.737116 6.057307 -0.583600 -4.891300 13.598900 0.960531 2.715070 6.976058 0.412368 3.624425 -4.858713 1.331890 1.565998 -5.243270 -1.189734 1.479621 -20.908372 9.507102 1.418739 10.245578 2.776900 1.225600 11.165200 -4.309673 -5.599783 1.871788 9.778553 -0.241487 34.438615 6.188585 -11.538539 -4.781928 -0.534519 -1.549631 -14.916590 1.847277 -1.813114 -0.021900 -7.125000 0.000000 0.000000 -18.415900 29.258000 7.418500 8.753061 6.771999 2.071444 -11.734722 -4.033149 35.314921 -6.943109 13.982163 -6.692524 1.352335 -2.148934 -9.414965 -4.483846 13.135866 -1.461400 7.125000 0.000000 0.000000 14.866300 -14.794000 10.958900 
